<svg width="107" height="40" viewBox="0 0 107 40" fill="none" xmlns="http://www.w3.org/2000/svg">
<path fill-rule="evenodd" clip-rule="evenodd" d="M32.7393 32.2453C32.7393 32.2453 33.6096 31.4677 34.1429 30.9908C34.4013 30.7595 34.5481 30.4295 34.5481 30.0825V17.9478H32.7393V32.2453Z" fill="#231916"/>
<path fill-rule="evenodd" clip-rule="evenodd" d="M21.9609 17.8042V32.2831C21.9609 32.2831 22.6749 31.4183 23.3042 29.6295C23.6193 28.7345 23.7698 27.7871 23.7698 26.8374V19.9294C23.7698 19.6063 23.6339 19.3001 23.3934 19.0848C22.8638 18.6107 21.9609 17.8042 21.9609 17.8042" fill="#231916"/>
<path fill-rule="evenodd" clip-rule="evenodd" d="M35.809 15.0577C35.7157 14.9764 35.6141 14.8952 35.5176 14.8139C35.4051 14.7194 35.2967 14.6248 35.1787 14.5307C34.9597 14.3554 34.7369 14.1883 34.5096 14.03C34.2819 13.8721 34.0893 13.7399 33.9315 13.6348L33.0159 14.8139H29.24V14.5987C29.24 14.2751 29.1046 13.9689 28.864 13.7536C28.334 13.2795 27.4316 12.473 27.4316 12.473V14.8139H23.5372C23.625 14.7093 23.7 14.5936 23.749 14.4628L25.1832 10.8725H30.2562H36.0587L36.2119 10.6879L36.3212 10.5562C36.2883 10.5236 36.248 10.4864 36.2119 10.4516C36.0934 10.3377 35.9631 10.2165 35.809 10.0821C35.7157 10.0008 35.6141 9.91957 35.5176 9.83833C35.4051 9.74377 35.2967 9.64922 35.1787 9.55512C34.9597 9.37978 34.7369 9.2127 34.5096 9.05435C34.2819 8.89645 34.0893 8.76426 33.9315 8.65914L33.0159 9.83833H25.5967L26.4135 7.793L24.73 7.08154L23.6511 9.83833H20.3545V10.8725H23.2459L21.2976 15.8481H27.4316V25.3862V32.2451C27.4316 32.2451 28.1455 31.3799 28.7749 29.5916C29.09 28.6961 29.24 27.7487 29.24 26.7995V23.3661V23.3661V15.8481H30.2562H36.0587L36.2119 15.6636L36.3212 15.5318C36.2883 15.4992 36.248 15.4621 36.2119 15.4272C36.0934 15.3133 35.9631 15.1922 35.809 15.0577" fill="#231916"/>
<path fill-rule="evenodd" clip-rule="evenodd" d="M54.1871 10.5045C54.0686 10.3906 53.9383 10.2695 53.7841 10.135C53.6908 10.0542 53.5893 9.9725 53.4928 9.89125C53.3798 9.7967 53.2714 9.7026 53.1539 9.60805C52.9348 9.43271 52.7121 9.26563 52.4848 9.10727C52.257 8.94937 52.0645 8.81764 51.9067 8.71207L50.9911 9.89125H49.9689V9.89125H47.1872V9.15593C47.1872 8.83233 47.0519 8.52617 46.8113 8.3109C46.2812 7.83675 45.3789 7.03027 45.3789 7.03027V9.89125H38.3018V10.9258H40.8936V25.4244V32.2834C40.8936 32.2834 41.608 31.4186 42.2373 29.6298C42.552 28.7348 42.7024 27.7869 42.7024 26.8377V23.4048V23.4048V15.9111H50.3576V16.3421V19.8333V21.8938V32.298C50.3576 32.298 51.228 31.5205 51.7608 31.0436C52.0192 30.8122 52.166 30.4822 52.166 30.1352V21.8938V16.3421V14.6383C52.166 14.2908 52.0192 13.9608 51.7608 13.7299C51.228 13.253 50.3576 12.4755 50.3576 12.4755V14.8765H42.7024V10.9258H49.6775H49.9689H54.0339L54.1871 10.7409L54.2964 10.6091C54.2634 10.5765 54.2232 10.5394 54.1871 10.5045" fill="#231916"/>
<mask id="mask0_357_50140" style="mask-type:luminance" maskUnits="userSpaceOnUse" x="0" y="0" width="107" height="40">
<path fill-rule="evenodd" clip-rule="evenodd" d="M0 40H107V0H0V40Z" fill="white"/>
</mask>
<g mask="url(#mask0_357_50140)">
<path fill-rule="evenodd" clip-rule="evenodd" d="M60.7634 14.0019H61.578V10.9257H60.7634V14.0019ZM58.9546 14.0019H58.1217C58.0531 13.8514 57.9543 13.7142 57.8281 13.6008C57.2948 13.1239 56.4245 12.3463 56.4245 12.3463V17.332V17.332V23.0099C56.4245 23.0099 57.1384 22.1447 57.7677 20.356C58.0829 19.4609 58.2333 18.5135 58.2333 17.5643V16.2804V15.0365H58.9546V18.821H60.7634V15.0365H61.578V18.821H63.3863V15.0365H64.1186V19.8611H58.4327V20.8957H64.1186V22.2494C64.1186 22.2494 64.9889 21.4718 65.5222 20.9949C65.5556 20.9646 65.5821 20.9288 65.6118 20.8957H65.6713V20.8301C65.8346 20.6185 65.9274 20.3587 65.9274 20.0865V15.0365V14.0019V12.6681H64.1186V14.0019H63.3863V10.9257H67.6388H68.3573H71.9951L72.1483 10.7412L72.2577 10.6094C72.2247 10.5764 72.1845 10.5392 72.1483 10.5043C72.0299 10.3905 71.8995 10.2698 71.7454 10.1353C71.6521 10.054 71.5506 9.97234 71.4536 9.8911C71.3411 9.79654 71.2327 9.70245 71.1152 9.60789C70.8961 9.43255 70.6734 9.26547 70.4461 9.10758C70.2183 8.94922 70.0258 8.81749 69.868 8.71191L68.9524 9.8911H68.3573V9.8911H56.2754V10.9257H58.9546V14.0019Z" fill="#231916"/>
<path fill-rule="evenodd" clip-rule="evenodd" d="M66.1746 28.167C66.1746 28.167 64.4989 28.6219 62.4682 29.1163V26.1479H62.7083H66.165L66.3182 25.9633L66.4276 25.8316C66.3946 25.799 66.3544 25.7618 66.3182 25.727C66.1998 25.6131 66.0694 25.4919 65.9153 25.3575C65.822 25.2762 65.7205 25.195 65.624 25.1137C65.5115 25.0192 65.4031 24.9246 65.2851 24.8305C65.066 24.6552 64.8433 24.4881 64.616 24.3297C64.3882 24.1718 64.1957 24.0397 64.0379 23.9345L63.1222 25.1137H62.7083V25.1137H62.4682V24.4289V23.6702C62.4682 23.3231 62.321 22.9931 62.063 22.7618C61.5297 22.2849 60.6594 21.5073 60.6594 21.5073V24.4289V25.1137H56.4238V26.1479H60.6594V27.9196V29.5431C59.0394 29.9117 57.4328 30.2344 56.4238 30.3271L56.7399 32.4762C56.7399 32.4762 65.0573 29.9503 66.1746 28.167" fill="#231916"/>
<path fill-rule="evenodd" clip-rule="evenodd" d="M68.5264 28.6806C68.6403 28.1174 68.7029 27.5436 68.7029 26.9676V25.6842V21.0919C69.061 22.26 69.8532 23.6242 70.5026 24.6271V27.7998C69.8934 27.9544 69.2033 28.2849 68.5264 28.6806V28.6806ZM70.5026 17.0301V19.9733V22.0342V22.1769C69.6798 21.3232 69.0135 20.5557 68.7029 20.1899V17.0301H70.5026ZM72.928 24.432C72.7231 24.2686 72.5168 24.0937 72.3115 23.9138V22.0342V16.4821V15.6003C72.3115 15.2533 72.1642 14.9233 71.9062 14.6924C71.373 14.215 70.5026 13.4375 70.5026 13.4375V15.996H68.7029V13.5637C68.7029 13.2162 68.5561 12.8862 68.2977 12.6553C67.7644 12.1784 66.8941 11.4009 66.8941 11.4009V26.2414V26.2414V29.7547C65.9172 30.4606 65.2051 31.0775 65.2051 31.0775L66.8941 32.399V32.4132C66.8941 32.4132 66.8973 32.4095 66.9014 32.4045L66.9124 32.4132C68.0155 30.8209 69.6451 29.1249 70.5026 28.2702V32.4385C70.5026 32.4385 71.373 31.6609 71.9062 31.1835C72.1642 30.9527 72.3115 30.6226 72.3115 30.2752V25.1306L72.928 24.432Z" fill="#231916"/>
<path fill-rule="evenodd" clip-rule="evenodd" d="M22.8559 39.7943V39.7924C22.5723 39.7924 22.3098 39.7107 22.0806 39.5781C21.6128 39.3077 21.2944 38.8065 21.2944 38.2258C21.2944 37.6447 21.6128 37.144 22.0806 36.8731C22.3098 36.7405 22.5723 36.6588 22.8559 36.6588H27.0192V36.6588H33.2447C34.2211 36.6588 35.0128 35.8643 35.0128 34.8843C35.0128 33.9048 34.2211 33.1102 33.2447 33.1102H20.3445V33.1153H5.03685C4.62431 33.1153 4.23922 33.0005 3.90855 32.8041C3.25454 32.4157 2.81502 31.7029 2.81502 30.8854C2.81502 30.0679 3.25454 29.3551 3.90855 28.9668C4.23922 28.7703 4.62431 28.6556 5.03685 28.6556H20.3445V28.4536H2.42307C1.08485 28.4536 0 29.5424 0 30.8854C0 32.2285 1.08485 33.3172 2.42307 33.3172H20.3445V33.3159H31.3375V33.3177C31.6211 33.3177 31.8836 33.3994 32.1127 33.532C32.5801 33.8024 32.8989 34.3036 32.8989 34.8843C32.8989 35.4654 32.5801 35.9661 32.1127 36.237C31.8836 36.3696 31.6211 36.4513 31.3375 36.4513H27.1742V36.4513H20.9487C19.9722 36.4513 19.1805 37.2459 19.1805 38.2258C19.1805 39.2053 19.9722 39.9999 20.9487 39.9999H65.2051V39.7943H22.8559Z" fill="#231916"/>
<path fill-rule="evenodd" clip-rule="evenodd" d="M105.477 4.021H105.476H74.9453V4.22663H103.799H103.819C104.057 4.22847 104.278 4.29778 104.471 4.41069C104.862 4.64019 105.128 5.06156 105.128 5.54948C105.128 6.03695 104.862 6.45831 104.471 6.68782C104.277 6.80119 104.055 6.8705 103.816 6.87188H103.801C103.804 6.87188 103.806 6.87279 103.809 6.87279L90.6468 6.87234H90.6463C89.8052 6.87234 89.1238 7.55671 89.1238 8.40082C89.1238 9.24493 89.8052 9.92885 90.6463 9.92885L97.0159 9.92931H97.0356C97.2743 9.93069 97.4952 10 97.6877 10.1129C98.0788 10.3424 98.3445 10.7638 98.3445 11.2517C98.3445 11.7392 98.0788 12.1605 97.6877 12.39C97.4943 12.5034 97.2729 12.5727 97.0333 12.5741H97.0182C97.0209 12.5741 97.0232 12.575 97.0255 12.575H89.6589V12.7797H98.6944C99.5355 12.7797 100.217 12.0954 100.217 11.2517C100.217 10.4076 99.5355 9.72322 98.6944 9.72322H98.6939L92.3152 9.72413C92.3175 9.72413 92.3198 9.72368 92.3225 9.72368H92.3074C92.0678 9.7223 91.8464 9.65299 91.6529 9.53916C91.2619 9.30965 90.9962 8.88829 90.9962 8.40082C90.9962 7.91336 91.2619 7.49199 91.6529 7.26249C91.8455 7.14958 92.0664 7.08027 92.3051 7.07843H92.3248L105.477 7.07751C106.318 7.07751 107 6.39313 107 5.54902C107 4.70537 106.318 4.021 105.477 4.021" fill="#231916"/>
<path fill-rule="evenodd" clip-rule="evenodd" d="M78.8047 15.7573C79.8003 14.7718 80.4873 13.7358 80.9625 12.7834H83.3549V16.0005H78.8047V17.0347H80.8779V17.0517V29.6123C80.8779 29.6123 81.5918 28.7471 82.2211 26.9588C82.5362 26.0638 82.6863 25.1159 82.6863 24.1667V18.3309C82.6863 18.0073 82.5509 17.7011 82.3103 17.4859C82.1672 17.3578 81.9966 17.2054 81.8246 17.0517C81.8182 17.0461 81.8123 17.0406 81.8059 17.0347H85.2346V17.0517V22.5326V28.5052C85.2346 29.1166 85.7286 29.6123 86.3378 29.6123C86.3378 29.6123 88.3318 29.6146 89.8704 29.6151C90.3657 29.6151 90.8112 29.3144 90.9982 28.8541L91.1084 28.5832L89.0531 25.2646V28.5777H87.0435V22.8301V22.8301V18.3309C87.0435 18.0078 86.9076 17.7011 86.6675 17.4859C86.5239 17.3578 86.3538 17.2054 86.1814 17.0517C86.175 17.0461 86.169 17.0406 86.1626 17.0347H90.5583L90.7115 16.8502L90.8208 16.7184C90.7878 16.6858 90.7481 16.6486 90.7115 16.6138C90.5935 16.4999 90.4627 16.3788 90.3085 16.2443C90.2157 16.163 90.1142 16.0818 90.0172 16.0005C89.9047 15.906 89.7963 15.8119 89.6788 15.7173C89.4592 15.542 89.2365 15.3749 89.0092 15.2166C88.7814 15.0587 88.5889 14.9269 88.4316 14.8213L87.5155 16.0005H85.1633V12.7834H89.9756L90.1288 12.5984L90.2381 12.4667C90.2052 12.4341 90.1649 12.3969 90.1288 12.362C90.0103 12.2482 89.88 12.127 89.7259 11.9925C89.6326 11.9117 89.531 11.83 89.4345 11.7488C89.322 11.6542 89.2136 11.5601 89.0961 11.4656C88.8766 11.2902 88.6538 11.1231 88.4265 10.9648C88.1988 10.8069 88.0062 10.6752 87.8484 10.5696L86.9328 11.7488H85.1633V9.1765C85.1633 8.8295 85.0165 8.49947 84.7581 8.26813C84.2253 7.79123 83.3549 7.01367 83.3549 7.01367V11.7488H81.4153C81.9851 10.2377 82.0231 9.13106 82.0231 9.13106C80.4036 9.12877 80.1027 8.86163 80.1027 8.86163C80.3624 13.1956 78.8047 15.7573 78.8047 15.7573" fill="#231916"/>
<path fill-rule="evenodd" clip-rule="evenodd" d="M80.0036 30.6446C79.3793 30.5321 78.3932 29.828 77.7772 29.185C77.9702 28.4648 78.0685 27.7203 78.0685 26.9735V25.6901V25.6901V15.4304C78.0685 15.0834 77.9217 14.7534 77.6637 14.522C77.1305 14.0451 76.2601 13.2676 76.2601 13.2676V15.9684H74.9873V17.0025H76.2601V26.2469V32.4191C76.2601 32.4191 76.841 31.7132 77.4163 30.2632C77.4191 30.2558 77.4223 30.2476 77.425 30.2402C78.5131 31.5456 79.3953 32.2309 80.0671 32.2809C81.087 32.3007 84.2012 32.3039 89.4022 32.2906C89.7896 32.2897 90.1477 32.0813 90.3407 31.7444C90.3407 31.7444 91.2339 30.1902 91.2316 30.187C89.6647 30.4656 81.4465 30.6731 80.0036 30.6446" fill="#231916"/>
<path fill-rule="evenodd" clip-rule="evenodd" d="M79.4817 11.141C78.3553 9.64831 76.7939 8.50585 74.9873 7.90088L77.6519 12.266L79.4817 11.141Z" fill="#231916"/>
<path fill-rule="evenodd" clip-rule="evenodd" d="M97 3C97 4.65703 95.6567 6 94.0002 6C92.3433 6 91 4.65703 91 3C91 1.34297 92.3433 0 94.0002 0C95.6567 0 97 1.34297 97 3" fill="#EA6101"/>
</g>
</svg>
